<?xml version="1.0" encoding="utf-8"?>
<!-- Generator: Adobe Illustrator 21.0.0, SVG Export Plug-In . SVG Version: 6.00 Build 0)  -->
<svg version="1.1" id="图层_1" xmlns="http://www.w3.org/2000/svg" xmlns:xlink="http://www.w3.org/1999/xlink" x="0px" y="0px"
	 viewBox="0 0 128 128" style="enable-background:new 0 0 128 128;" xml:space="preserve">
<style type="text/css">
	.st0{fill:#333333;}
</style>
<path class="st0" d="M66.8,8.4c-2.3-1-5-0.6-6.9,0.9L28.3,35.8H9.2c-3.6,0-6.5,2.9-6.5,6.5v43.1c0,3.6,2.9,6.5,6.5,6.5h21.9V84H10.6
	l0-40.1h20.5l31.4-26.4v92.9L31.1,84.1L26,90.2l33.8,28.4c1.2,1,2.7,1.5,4.2,1.5c1,0,1.9-0.3,2.8-0.6c2.3-1,3.8-3.3,3.8-5.9V14.3
	C70.5,11.8,69.1,9.5,66.8,8.4L66.8,8.4z"/>
<path class="st0" d="M86.3,31.7l-5.1,6.1c7.8,6.5,12.3,16.3,12.3,26.5c0,9.9-4.2,19.2-11.5,25.9l5.4,6c9.1-8.1,14.2-19.7,14.2-31.9
	C101.5,51.8,96,39.9,86.3,31.7L86.3,31.7z"/>
<path class="st0" d="M99.8,19.6l-4.1,6.9c13.3,7.8,21.6,22.1,21.6,37.5s-8.2,29.7-21.4,37.5l4.1,6.9c15.6-9.2,25.2-26.2,25.2-44.4
	S115.6,28.8,99.8,19.6L99.8,19.6z"/>
</svg>
